<mxfile host="Electron" modified="2024-05-07T11:28:32.578Z" agent="Mozilla/5.0 (X11; Linux x86_64) AppleWebKit/537.36 (KHTML, like Gecko) draw.io/24.1.0 Chrome/120.0.6099.109 Electron/28.1.0 Safari/537.36" etag="cljsKOvizDJsnjiB3DEH" version="24.1.0" type="device">
  <diagram name="Page-1" id="C0ntSV7dSIQlrxOuzCNE">
    <mxGraphModel dx="2022" dy="683" grid="1" gridSize="10" guides="1" tooltips="1" connect="1" arrows="1" fold="1" page="1" pageScale="1" pageWidth="827" pageHeight="1169" math="0" shadow="0">
      <root>
        <mxCell id="0" />
        <mxCell id="1" parent="0" />
        <mxCell id="svknlvKKO0f7Pu-raAb0-1" value="RHEL/KVM Hypervisor" style="rounded=0;whiteSpace=wrap;html=1;fillColor=#e3c800;fontColor=#000000;strokeColor=#B09500;" parent="1" vertex="1">
          <mxGeometry x="40" y="550" width="620" height="50" as="geometry" />
        </mxCell>
        <mxCell id="svknlvKKO0f7Pu-raAb0-2" value="" style="rounded=0;whiteSpace=wrap;html=1;fillColor=#dae8fc;strokeColor=#6c8ebf;" parent="1" vertex="1">
          <mxGeometry x="40" y="480" width="620" height="70" as="geometry" />
        </mxCell>
        <mxCell id="svknlvKKO0f7Pu-raAb0-3" value="" style="rounded=0;whiteSpace=wrap;html=1;fillColor=#1ba1e2;fontColor=#ffffff;strokeColor=#006EAF;" parent="1" vertex="1">
          <mxGeometry x="40" y="170" width="270" height="250" as="geometry" />
        </mxCell>
        <mxCell id="svknlvKKO0f7Pu-raAb0-4" value="" style="rounded=0;whiteSpace=wrap;html=1;fillColor=#fff2cc;strokeColor=#d6b656;" parent="1" vertex="1">
          <mxGeometry x="310" y="170" width="350" height="250" as="geometry" />
        </mxCell>
        <mxCell id="svknlvKKO0f7Pu-raAb0-5" value="PostgreSQL DB" style="rounded=0;whiteSpace=wrap;html=1;fillColor=#6a00ff;fontColor=#ffffff;strokeColor=#3700CC;" parent="1" vertex="1">
          <mxGeometry x="320" y="230" width="120" height="40" as="geometry" />
        </mxCell>
        <mxCell id="svknlvKKO0f7Pu-raAb0-6" value="RabbitMQ" style="rounded=0;whiteSpace=wrap;html=1;fillColor=#e1d5e7;strokeColor=#9673a6;" parent="1" vertex="1">
          <mxGeometry x="320" y="180" width="120" height="40" as="geometry" />
        </mxCell>
        <mxCell id="svknlvKKO0f7Pu-raAb0-7" value="CloudNativePG" style="rounded=0;whiteSpace=wrap;html=1;fillColor=#6a00ff;fontColor=#ffffff;strokeColor=#3700CC;" parent="1" vertex="1">
          <mxGeometry x="450" y="230" width="200" height="40" as="geometry" />
        </mxCell>
        <mxCell id="svknlvKKO0f7Pu-raAb0-8" value="RabbitMQ-cluster-operator" style="rounded=0;whiteSpace=wrap;html=1;fillColor=#e1d5e7;strokeColor=#9673a6;" parent="1" vertex="1">
          <mxGeometry x="450" y="180" width="200" height="40" as="geometry" />
        </mxCell>
        <mxCell id="svknlvKKO0f7Pu-raAb0-9" value="OpenShift Data Foundation" style="rounded=0;whiteSpace=wrap;html=1;fillColor=#60a917;fontColor=#ffffff;strokeColor=#2D7600;" parent="1" vertex="1">
          <mxGeometry x="450" y="280" width="200" height="40" as="geometry" />
        </mxCell>
        <mxCell id="svknlvKKO0f7Pu-raAb0-10" value="S3 Bucket" style="rounded=0;whiteSpace=wrap;html=1;fillColor=#60a917;fontColor=#ffffff;strokeColor=#2D7600;" parent="1" vertex="1">
          <mxGeometry x="320" y="280" width="120" height="40" as="geometry" />
        </mxCell>
        <mxCell id="svknlvKKO0f7Pu-raAb0-11" value="Operators" style="text;html=1;align=center;verticalAlign=middle;whiteSpace=wrap;rounded=0;" parent="1" vertex="1">
          <mxGeometry x="590" y="390" width="60" height="30" as="geometry" />
        </mxCell>
        <mxCell id="svknlvKKO0f7Pu-raAb0-12" value="OpenShift" style="rounded=0;whiteSpace=wrap;html=1;fillColor=#e51400;fontColor=#ffffff;strokeColor=#B20000;" parent="1" vertex="1">
          <mxGeometry x="40" y="420" width="620" height="60" as="geometry" />
        </mxCell>
        <mxCell id="svknlvKKO0f7Pu-raAb0-13" value="master-1" style="rounded=0;whiteSpace=wrap;html=1;" parent="1" vertex="1">
          <mxGeometry x="45" y="490" width="90" height="20" as="geometry" />
        </mxCell>
        <mxCell id="svknlvKKO0f7Pu-raAb0-14" value="master-3" style="rounded=0;whiteSpace=wrap;html=1;" parent="1" vertex="1">
          <mxGeometry x="240" y="490" width="90" height="20" as="geometry" />
        </mxCell>
        <mxCell id="svknlvKKO0f7Pu-raAb0-15" value="master-2" style="rounded=0;whiteSpace=wrap;html=1;" parent="1" vertex="1">
          <mxGeometry x="140" y="490" width="90" height="20" as="geometry" />
        </mxCell>
        <mxCell id="svknlvKKO0f7Pu-raAb0-16" value="worker-1" style="rounded=0;whiteSpace=wrap;html=1;" parent="1" vertex="1">
          <mxGeometry x="360" y="490" width="90" height="20" as="geometry" />
        </mxCell>
        <mxCell id="svknlvKKO0f7Pu-raAb0-17" value="worker-3" style="rounded=0;whiteSpace=wrap;html=1;" parent="1" vertex="1">
          <mxGeometry x="560" y="490" width="90" height="20" as="geometry" />
        </mxCell>
        <mxCell id="svknlvKKO0f7Pu-raAb0-18" value="worker-2" style="rounded=0;whiteSpace=wrap;html=1;" parent="1" vertex="1">
          <mxGeometry x="460" y="490" width="90" height="20" as="geometry" />
        </mxCell>
        <mxCell id="svknlvKKO0f7Pu-raAb0-19" value="ingress" style="rounded=0;whiteSpace=wrap;html=1;fillColor=#d5e8d4;strokeColor=#82b366;" parent="1" vertex="1">
          <mxGeometry x="50" y="180" width="120" height="40" as="geometry" />
        </mxCell>
        <mxCell id="svknlvKKO0f7Pu-raAb0-20" value="orchestration" style="rounded=0;whiteSpace=wrap;html=1;fillColor=#d5e8d4;strokeColor=#82b366;" parent="1" vertex="1">
          <mxGeometry x="50" y="230" width="250" height="40" as="geometry" />
        </mxCell>
        <mxCell id="svknlvKKO0f7Pu-raAb0-21" value="generation" style="rounded=0;whiteSpace=wrap;html=1;fillColor=#d5e8d4;strokeColor=#82b366;" parent="1" vertex="1">
          <mxGeometry x="50" y="280" width="120" height="40" as="geometry" />
        </mxCell>
        <mxCell id="svknlvKKO0f7Pu-raAb0-22" value="egress" style="rounded=0;whiteSpace=wrap;html=1;fillColor=#d5e8d4;strokeColor=#82b366;" parent="1" vertex="1">
          <mxGeometry x="180" y="180" width="120" height="40" as="geometry" />
        </mxCell>
        <mxCell id="svknlvKKO0f7Pu-raAb0-23" value="classification" style="rounded=0;whiteSpace=wrap;html=1;fillColor=#d5e8d4;strokeColor=#82b366;" parent="1" vertex="1">
          <mxGeometry x="180" y="280" width="120" height="40" as="geometry" />
        </mxCell>
        <mxCell id="svknlvKKO0f7Pu-raAb0-24" value="ArgoCD" style="text;html=1;align=center;verticalAlign=middle;whiteSpace=wrap;rounded=0;" parent="1" vertex="1">
          <mxGeometry x="240" y="380" width="60" height="30" as="geometry" />
        </mxCell>
        <mxCell id="svknlvKKO0f7Pu-raAb0-25" value="OpenShift GitOps" style="rounded=0;whiteSpace=wrap;html=1;fillColor=#1ba1e2;fontColor=#ffffff;strokeColor=#006EAF;" parent="1" vertex="1">
          <mxGeometry x="450" y="330" width="200" height="40" as="geometry" />
        </mxCell>
        <mxCell id="svknlvKKO0f7Pu-raAb0-26" value="ArgoCD" style="rounded=0;whiteSpace=wrap;html=1;fillColor=#1ba1e2;fontColor=#ffffff;strokeColor=#006EAF;" parent="1" vertex="1">
          <mxGeometry x="320" y="330" width="120" height="40" as="geometry" />
        </mxCell>
        <mxCell id="svknlvKKO0f7Pu-raAb0-27" value="VMs" style="text;html=1;align=center;verticalAlign=middle;whiteSpace=wrap;rounded=0;" parent="1" vertex="1">
          <mxGeometry x="600" y="520" width="60" height="30" as="geometry" />
        </mxCell>
        <mxCell id="kW7MtYloaxkDUsCmPP51-3" value="" style="endArrow=none;html=1;rounded=0;strokeWidth=5;" edge="1" parent="1">
          <mxGeometry width="50" height="50" relative="1" as="geometry">
            <mxPoint y="120" as="sourcePoint" />
            <mxPoint y="610" as="targetPoint" />
          </mxGeometry>
        </mxCell>
        <mxCell id="kW7MtYloaxkDUsCmPP51-15" value="" style="group" vertex="1" connectable="0" parent="1">
          <mxGeometry x="-170" y="460" width="90" height="90" as="geometry" />
        </mxCell>
        <mxCell id="kW7MtYloaxkDUsCmPP51-9" value="" style="fontColor=#0066CC;verticalAlign=top;verticalLabelPosition=bottom;labelPosition=center;align=center;html=1;outlineConnect=0;fillColor=#CCCCCC;strokeColor=#6881B3;gradientColor=none;gradientDirection=north;strokeWidth=2;shape=mxgraph.networks.storage;" vertex="1" parent="kW7MtYloaxkDUsCmPP51-15">
          <mxGeometry x="15" width="60" height="60" as="geometry" />
        </mxCell>
        <mxCell id="kW7MtYloaxkDUsCmPP51-13" value="Local Storage" style="text;html=1;align=center;verticalAlign=middle;whiteSpace=wrap;rounded=0;" vertex="1" parent="kW7MtYloaxkDUsCmPP51-15">
          <mxGeometry y="60" width="90" height="30" as="geometry" />
        </mxCell>
        <mxCell id="kW7MtYloaxkDUsCmPP51-16" value="" style="group" vertex="1" connectable="0" parent="1">
          <mxGeometry x="-210" y="190" width="170" height="230" as="geometry" />
        </mxCell>
        <mxCell id="kW7MtYloaxkDUsCmPP51-4" value="RHEL" style="rounded=0;whiteSpace=wrap;html=1;fillColor=#e3c800;fontColor=#000000;strokeColor=#B09500;" vertex="1" parent="kW7MtYloaxkDUsCmPP51-16">
          <mxGeometry y="180" width="170" height="50" as="geometry" />
        </mxCell>
        <mxCell id="kW7MtYloaxkDUsCmPP51-5" value="" style="rounded=0;whiteSpace=wrap;html=1;fillColor=#dae8fc;strokeColor=#6c8ebf;" vertex="1" parent="kW7MtYloaxkDUsCmPP51-16">
          <mxGeometry width="170" height="180" as="geometry" />
        </mxCell>
        <mxCell id="kW7MtYloaxkDUsCmPP51-6" value="frontend" style="rounded=0;whiteSpace=wrap;html=1;fillColor=#d5e8d4;strokeColor=#82b366;" vertex="1" parent="kW7MtYloaxkDUsCmPP51-16">
          <mxGeometry x="20" y="80" width="120" height="40" as="geometry" />
        </mxCell>
        <mxCell id="kW7MtYloaxkDUsCmPP51-12" value="cdn-openresty" style="rounded=0;whiteSpace=wrap;html=1;fillColor=#d5e8d4;strokeColor=#82b366;" vertex="1" parent="kW7MtYloaxkDUsCmPP51-16">
          <mxGeometry x="20" y="20" width="120" height="40" as="geometry" />
        </mxCell>
        <mxCell id="kW7MtYloaxkDUsCmPP51-14" value="Podman Container" style="text;html=1;align=center;verticalAlign=middle;whiteSpace=wrap;rounded=0;" vertex="1" parent="kW7MtYloaxkDUsCmPP51-16">
          <mxGeometry x="50" y="140" width="110" height="30" as="geometry" />
        </mxCell>
        <mxCell id="kW7MtYloaxkDUsCmPP51-28" value="&lt;b&gt;&lt;font style=&quot;font-size: 16px;&quot;&gt;Edge&lt;/font&gt;&lt;/b&gt;" style="text;html=1;align=center;verticalAlign=middle;whiteSpace=wrap;rounded=0;" vertex="1" parent="1">
          <mxGeometry x="-155" y="120" width="60" height="30" as="geometry" />
        </mxCell>
        <mxCell id="kW7MtYloaxkDUsCmPP51-29" value="&lt;b&gt;&lt;font style=&quot;font-size: 16px;&quot;&gt;Core&lt;/font&gt;&lt;/b&gt;" style="text;html=1;align=center;verticalAlign=middle;whiteSpace=wrap;rounded=0;" vertex="1" parent="1">
          <mxGeometry x="320" y="120" width="60" height="30" as="geometry" />
        </mxCell>
      </root>
    </mxGraphModel>
  </diagram>
</mxfile>
